# xmcd
#
# Track frame offsets: 
#        182
#        19255
#        35770
#        50040
#        65070
#        80405
#        97300
#        114827
#        131420
#        146675
#
# Disc length: 2132 seconds
#
# Revision: 4
# Processed by: cddbd v1.5.2PL0 Copyright (c) Steve Scherf et al.
# Submitted via: ExactAudioCopy v1.0b4
#
DISCID=9208520a
DTITLE=Various Artist - Country Love Songs - Volume 2
DYEAR=1993
DGENRE=Country
TTITLE0=Carlene Carter - The Sweetest Thing
TTITLE1=Randy Travis - I Told You So
TTITLE2=Dan Seals - Mason Dixon Line
TTITLE3=Forester Sisters - (I'd Choose) You Again
TTITLE4=John Anderson - Down In Tennessee
TTITLE5=Little Texas - You And Forever And Me
TTITLE6=Emmylou Harris - Together Again
TTITLE7=Kenny Rogers - Bed Of Roses
TTITLE8=Michael White - The River And The Rain
TTITLE9=Holly Dunn - (It's Always Gonna Be) Someday
EXTD=more info - MillenniumMusicProjectFormat - SYNTAX=SongTitle{Subtit
EXTD=le}[miscInfo](Lyricist;Composer;Date,Artist,Location,State,Countr
EXTD=y)
EXTT0=
EXTT1=
EXTT2=
EXTT3=
EXTT4=
EXTT5=
EXTT6=
EXTT7=
EXTT8=
EXTT9=
PLAYORDER=
